<svg width="600" height="400" viewBox="0 0 931 652" fill="none" xmlns="http://www.w3.org/2000/svg">
<g clip-path="url(#clip0)">
<path d="M560 428H0V252L560 -2V428Z" fill="#F2F2F2"/>
<path d="M396.839 384.649C430.631 384.649 458.024 357.255 458.024 323.463C458.024 289.671 430.631 262.277 396.839 262.277C363.047 262.277 335.653 289.671 335.653 323.463C335.653 357.255 363.047 384.649 396.839 384.649Z" fill="#8CAF1C"/>
<path d="M396.284 434.114L396.786 323.126" stroke="#3F3D56" stroke-width="2" stroke-miterlimit="10"/>
<path d="M396.786 338.821C405.454 338.821 412.481 331.794 412.481 323.126C412.481 314.458 405.454 307.431 396.786 307.431C388.117 307.431 381.09 314.458 381.09 323.126C381.09 331.794 388.117 338.821 396.786 338.821Z" fill="#3F3D56"/>
<path d="M396.477 391.53C396.477 391.53 394.452 343.296 348.463 348.693Z" fill="#3F3D56"/>
<path d="M140.524 261.806C174.315 261.806 201.709 234.413 201.709 200.621C201.709 166.829 174.315 139.435 140.524 139.435C106.732 139.435 79.3378 166.829 79.3378 200.621C79.3378 234.413 106.732 261.806 140.524 261.806Z" fill="#8CAF1C"/>
<path d="M137.059 426.503L140.58 200.553" stroke="#3F3D56" stroke-width="2" stroke-miterlimit="10"/>
<path d="M140.58 216.248C149.249 216.248 156.276 209.221 156.276 200.553C156.276 191.885 149.249 184.858 140.58 184.858C131.912 184.858 124.885 191.885 124.885 200.553C124.885 209.221 131.912 216.248 140.58 216.248Z" fill="#3F3D56"/>
<path d="M139.584 264.465C139.584 264.465 138.094 216.211 92.0472 221.1Z" fill="#3F3D56"/>
<path d="M137.126 422.189C137.126 422.189 148.66 329.621 90.4399 324.228" stroke="#3F3D56" stroke-width="2" stroke-miterlimit="10"/>
<path d="M90.4399 339.924C99.1082 339.924 106.135 332.897 106.135 324.228C106.135 315.56 99.1082 308.533 90.4399 308.533C81.7716 308.533 74.7446 315.56 74.7446 324.228C74.7446 332.897 81.7716 339.924 90.4399 339.924Z" fill="#3F3D56"/>
<path d="M272.103 125.971C305.895 125.971 333.289 98.5772 333.289 64.7853C333.289 30.9933 305.895 3.59952 272.103 3.59952C238.311 3.59952 210.917 30.9933 210.917 64.7853C210.917 98.5772 238.311 125.971 272.103 125.971Z" fill="#8CAF1C"/>
<path d="M272.141 435.216V65.01" stroke="#3F3D56" stroke-width="2" stroke-miterlimit="10"/>
<path d="M272.141 80.53C280.81 80.53 287.837 73.5029 287.837 64.8346C287.837 56.1663 280.81 49.1393 272.141 49.1393C263.473 49.1393 256.446 56.1663 256.446 64.8346C256.446 73.5029 263.473 80.53 272.141 80.53Z" fill="#3F3D56"/>
<path d="M223.934 348.376C232.602 348.376 239.63 341.349 239.63 332.68C239.63 324.012 232.602 316.985 223.934 316.985C215.266 316.985 208.239 324.012 208.239 332.68C208.239 341.349 215.266 348.376 223.934 348.376Z" fill="#3F3D56"/>
<path d="M272.141 145.007C272.141 145.007 269.899 96.7825 223.934 102.388Z" fill="#3F3D56"/>
<path d="M272.141 281.719C272.141 281.719 269.899 233.494 223.934 239.1Z" fill="#3F3D56"/>
<path d="M272.141 430.901C272.141 430.901 282.231 337.165 223.934 332.68" stroke="#3F3D56" stroke-width="2" stroke-miterlimit="10"/>
<path d="M321.311 201.148C329.98 201.148 337.007 194.121 337.007 185.452C337.007 176.784 329.98 169.757 321.311 169.757C312.643 169.757 305.616 176.784 305.616 185.452C305.616 194.121 312.643 201.148 321.311 201.148Z" fill="#3F3D56"/>
<path d="M273.104 278.673C273.104 278.673 263.014 189.937 321.311 185.452" stroke="#3F3D56" stroke-width="2" stroke-miterlimit="10"/>
<path d="M403 150C398.649 150 394.395 148.71 390.777 146.292C387.16 143.875 384.34 140.439 382.675 136.419C381.01 132.399 380.574 127.976 381.423 123.708C382.272 119.44 384.367 115.52 387.444 112.444C390.52 109.367 394.44 107.272 398.708 106.423C402.976 105.574 407.399 106.01 411.419 107.675C415.439 109.34 418.875 112.16 421.292 115.777C423.71 119.395 425 123.649 425 128C424.993 133.833 422.673 139.425 418.549 143.549C414.425 147.673 408.833 149.993 403 150V150ZM403 108C399.044 108 395.178 109.173 391.889 111.371C388.6 113.568 386.036 116.692 384.522 120.346C383.009 124.001 382.613 128.022 383.384 131.902C384.156 135.781 386.061 139.345 388.858 142.142C391.655 144.939 395.219 146.844 399.098 147.616C402.978 148.387 406.999 147.991 410.654 146.478C414.308 144.964 417.432 142.4 419.629 139.111C421.827 135.822 423 131.956 423 128C422.994 122.698 420.885 117.614 417.135 113.865C413.386 110.115 408.302 108.006 403 108Z" fill="#3F3D56"/>
<path d="M22 48C17.6488 48 13.3954 46.7097 9.77747 44.2923C6.15959 41.8749 3.33979 38.439 1.67466 34.419C0.00952947 30.3991 -0.42614 25.9756 0.422735 21.708C1.27161 17.4404 3.36691 13.5204 6.44367 10.4437C9.52043 7.3669 13.4404 5.27161 17.708 4.42273C21.9756 3.57386 26.3991 4.00954 30.419 5.67466C34.439 7.33979 37.875 10.1596 40.2923 13.7775C42.7097 17.3953 44 21.6488 44 26C43.9934 31.8328 41.6735 37.4247 37.5491 41.5491C33.4247 45.6735 27.8328 47.9934 22 48V48ZM22 6.00001C18.0444 6.00001 14.1776 7.17299 10.8886 9.37062C7.59963 11.5682 5.03617 14.6918 3.52242 18.3463C2.00867 22.0009 1.61261 26.0222 2.38431 29.9018C3.15602 33.7814 5.06083 37.3451 7.85788 40.1421C10.6549 42.9392 14.2186 44.844 18.0982 45.6157C21.9778 46.3874 25.9992 45.9913 29.6537 44.4776C33.3082 42.9638 36.4318 40.4004 38.6294 37.1114C40.827 33.8224 42 29.9556 42 26C41.994 20.6975 39.8849 15.614 36.1355 11.8646C32.386 8.11516 27.3025 6.00607 22 6.00001V6.00001Z" fill="#3F3D56"/>
<path d="M560 370C555.649 370 551.395 368.71 547.777 366.292C544.16 363.875 541.34 360.439 539.675 356.419C538.01 352.399 537.574 347.976 538.423 343.708C539.272 339.44 541.367 335.52 544.444 332.444C547.52 329.367 551.44 327.272 555.708 326.423C559.976 325.574 564.399 326.01 568.419 327.675C572.439 329.34 575.875 332.16 578.292 335.777C580.71 339.395 582 343.649 582 348C581.993 353.833 579.673 359.425 575.549 363.549C571.425 367.673 565.833 369.993 560 370ZM560 328C556.044 328 552.178 329.173 548.889 331.371C545.6 333.568 543.036 336.692 541.522 340.346C540.009 344.001 539.613 348.022 540.384 351.902C541.156 355.781 543.061 359.345 545.858 362.142C548.655 364.939 552.219 366.844 556.098 367.616C559.978 368.387 563.999 367.991 567.654 366.478C571.308 364.964 574.432 362.4 576.629 359.111C578.827 355.822 580 351.956 580 348C579.994 342.698 577.885 337.614 574.135 333.865C570.386 330.115 565.302 328.006 560 328V328Z" fill="#3F3D56"/>
<path d="M467 198C474.18 198 480 192.18 480 185C480 177.82 474.18 172 467 172C459.82 172 454 177.82 454 185C454 192.18 459.82 198 467 198Z" fill="#3F3D56"/>
<path d="M569 435C576.18 435 582 429.18 582 422C582 414.82 576.18 409 569 409C561.82 409 556 414.82 556 422C556 429.18 561.82 435 569 435Z" fill="#3F3D56"/>
<path d="M278 652C431.535 652 556 549.473 556 423H0C0 549.473 124.465 652 278 652Z" fill="#8CAF1C"/>
<path d="M823.783 504.557C919.391 456.195 957.691 339.485 909.33 243.877L563.104 419.01C611.465 514.617 728.175 552.918 823.783 504.557Z" fill="#3F3D56"/>
<path d="M830.796 143.503C831.44 143.066 832.063 142.598 832.668 142.11C831.407 145.887 829.373 149.361 826.697 152.31V152.31C826.071 153 825.403 153.645 824.716 154.269C824.703 154.111 824.687 153.953 824.679 153.795C824.599 152.265 824.711 150.655 824.732 149.08C827.116 147.659 829.181 145.76 830.796 143.503V143.503Z" fill="url(#paint0_linear)"/>
<path d="M840.178 87.7108C841.633 85.2579 842.473 82.4889 842.624 79.6408C842.775 76.7927 842.234 73.9504 841.046 71.3572C839.859 68.7641 838.06 66.4973 835.805 64.751C833.55 63.0048 830.906 61.831 828.098 61.3303C825.29 60.8295 822.403 61.0167 819.683 61.8758C816.964 62.7349 814.493 64.2403 812.482 66.2631C810.471 68.286 808.981 70.7659 808.138 73.4907C807.296 76.2155 807.126 79.1039 807.643 81.9086C802.597 84.3118 798.374 88.1536 795.506 92.9507C792.638 97.7478 791.252 103.286 791.524 108.869C789.113 112.569 787.6 116.781 787.104 121.17C786.608 125.559 787.143 130.002 788.668 134.147C790.192 138.293 792.663 142.025 795.884 145.047C799.105 148.068 802.986 150.297 807.22 151.554C811.454 152.811 815.923 153.063 820.271 152.288C824.619 151.514 828.726 149.736 832.266 147.094C835.805 144.453 838.68 141.021 840.659 137.073C842.639 133.126 843.67 128.77 843.67 124.353C843.67 123.901 843.656 123.452 843.635 123.005C847.154 117.604 848.73 111.166 848.101 104.751C847.473 98.3357 844.678 92.3258 840.178 87.7108Z" fill="#2F2E41"/>
<g opacity="0.1">
<path opacity="0.1" d="M807.409 77.4285C807.488 77.3898 807.564 77.3454 807.643 77.3074C807.587 77.0018 807.548 76.6912 807.508 76.381C807.499 76.4458 807.487 76.5094 807.479 76.5745C807.445 76.8605 807.43 77.1442 807.409 77.4285Z" fill="black"/>
<path opacity="0.1" d="M848.032 106.314C847.516 110.629 846.011 114.765 843.635 118.403C843.656 118.851 843.67 119.3 843.67 119.752C843.671 127.079 840.837 134.122 835.762 139.407C830.687 144.692 823.764 147.808 816.444 148.104C809.123 148.399 801.971 145.851 796.487 140.992C791.003 136.134 787.61 129.342 787.021 122.039C786.959 122.803 786.921 123.574 786.921 124.353C786.921 131.879 789.91 139.096 795.232 144.417C800.553 149.738 807.77 152.728 815.295 152.728C822.821 152.728 830.038 149.738 835.359 144.417C840.68 139.096 843.67 131.879 843.67 124.353C843.67 123.901 843.656 123.452 843.635 123.005C847.076 117.732 848.659 111.463 848.135 105.189C848.105 105.564 848.077 105.938 848.032 106.314Z" fill="black"/>
<path opacity="0.1" d="M842.506 76.3618C842.2 78.7466 841.407 81.0432 840.178 83.1096C840.674 83.6191 841.143 84.1531 841.599 84.6977C842.567 82.0322 842.878 79.1729 842.506 76.3618H842.506Z" fill="black"/>
</g>
<path d="M725.837 392.135C725.972 393.749 726.41 395.324 727.126 396.777C727.492 397.5 728.023 398.127 728.677 398.606C729.33 399.084 730.088 399.401 730.888 399.531C732.359 399.54 733.801 399.122 735.038 398.328C737.564 397.008 740.186 395.475 741.505 392.948C742.781 390.502 742.598 387.583 742.382 384.832L740.686 363.196C736.599 363.084 732.494 363.085 728.411 363.308C724.366 363.528 723.656 364.481 724.219 368.429C725.339 376.287 724.794 384.27 725.837 392.135Z" fill="#FBBEBE"/>
<path d="M845.729 406.758L855.453 422.468C855.871 423.382 856.63 424.095 857.568 424.456C858.266 424.557 858.977 424.434 859.6 424.103C862.843 422.686 865.325 419.995 867.706 417.377C869.322 415.601 870.993 413.727 871.599 411.404C871.913 410.144 871.899 408.825 871.559 407.571C871.219 406.318 870.564 405.173 869.657 404.244C868.521 403.256 867.293 402.379 865.991 401.624C858.304 396.44 854.835 386.59 847.247 381.262C846.809 380.899 846.275 380.669 845.71 380.601C845.146 380.634 844.601 380.817 844.131 381.131C840.673 383.026 837.215 384.922 833.757 386.817C829.265 389.274 830.689 389.563 834.1 392.21C839.125 396.109 842.264 401.56 845.729 406.758Z" fill="#FBBEBE"/>
<path d="M746.943 379.621C745.519 379.172 743.923 378.768 742.58 379.422C741.952 379.806 741.421 380.328 741.027 380.95C740.632 381.572 740.386 382.275 740.307 383.007C740.036 384.451 740.069 385.949 739.668 387.362C738.992 389.745 737.176 391.607 735.426 393.36C734.719 394.204 733.8 394.843 732.763 395.213C731.361 395.572 729.87 394.916 728.444 395.165C727.614 395.378 726.857 395.814 726.257 396.426C725.656 397.039 725.234 397.803 725.037 398.638C724.666 400.311 724.61 402.039 724.871 403.733L725.974 415.792C726.169 417.262 726.184 418.75 726.019 420.223C725.612 422.874 724.072 425.2 723.217 427.742C722.362 430.284 722.41 433.53 724.549 435.147C725.296 435.645 726.156 435.948 727.051 436.026C727.945 436.105 728.845 435.958 729.668 435.598C731.306 434.859 732.755 433.759 733.907 432.379C740.457 425.237 743.381 415.564 748.475 407.32C749.775 405.414 750.938 403.417 751.956 401.346C752.655 399.744 753.099 398.046 753.665 396.392C754.446 394.184 755.383 392.033 756.47 389.958C757.075 388.77 759.395 385.911 758.908 384.585C758.076 382.322 749.149 380.317 746.943 379.621Z" fill="#2F2E41"/>
<path d="M865.035 412.883C863.561 415.647 861.102 417.755 858.145 418.788C857.287 419.02 856.488 419.433 855.803 420C855.354 420.549 855.075 421.218 855.002 421.924C854.929 422.63 855.065 423.342 855.394 423.972C856.071 425.218 856.951 426.342 857.999 427.297C863.878 433.519 867.766 441.354 869.165 449.799C869.513 451.93 869.741 454.195 871.016 455.937C873.507 459.341 878.809 459.118 882.554 457.178C883.698 456.654 884.691 455.849 885.44 454.838C886.064 453.742 886.461 452.532 886.607 451.279C887.283 448.175 887.657 445.012 887.722 441.836C887.649 435.84 885.397 430.109 884.321 424.21C882.795 415.839 883.56 406.822 879.661 399.258C879.273 398.37 878.659 397.599 877.881 397.02C876.906 396.508 875.812 396.262 874.711 396.309C871.189 396.165 867.665 396.134 864.138 396.216C863.15 396.239 861.995 396.363 861.483 397.209C860.96 398.073 861.417 399.177 861.877 400.077C864.059 404.347 867.596 407.761 865.035 412.883Z" fill="#2F2E41"/>
<path d="M781.371 262.835C780.386 263.648 779.719 264.782 779.485 266.037C779.252 267.293 779.468 268.591 780.095 269.703C780.876 270.997 782.277 272.202 781.97 273.681C781.651 275.218 779.763 275.739 778.213 275.986C764.558 278.158 751.269 282.155 738.029 286.142L724.142 290.323C720.137 291.529 716.063 292.767 712.603 295.116C709.428 297.279 706.916 300.281 705.345 303.787C703.757 307.347 703.211 311.268 702.644 315.124C700.559 329.316 697.896 343.648 691.563 356.519L725.246 367.563C728.512 368.762 731.894 369.613 735.339 370.103C738.622 370.376 741.927 370.216 745.168 369.627C744.959 362.106 744.832 354.358 744.623 346.837C744.601 344.461 744.446 342.089 744.161 339.731C743.655 336.126 742.537 332.62 742.189 328.997C743.742 327.716 746.001 328.034 748.014 328.093C752.609 328.227 757.095 326.63 761.182 324.524C765.268 322.419 769.068 319.795 773.132 317.646C779.902 314.065 787.602 311.657 792.771 306.005C790.138 316.038 783.919 324.781 782.716 335.085C781.5 345.495 785.737 355.682 789.884 365.307L803.135 396.06C804.598 399.455 806.547 403.272 810.154 404.082C812.402 404.586 814.72 403.743 816.806 402.766C829.003 397.054 838.76 386.316 851.782 382.882C850.812 376.433 845.716 371.102 842.831 365.254C840.397 360.322 839.602 354.768 837.98 349.512C836.359 344.257 833.572 338.931 828.672 336.433C826.346 335.247 823.211 334.215 822.994 331.613C822.979 330.777 823.156 329.949 823.512 329.192C825.257 324.801 827.966 320.858 831.438 317.654C831.885 317.31 832.243 316.862 832.48 316.35C832.609 315.843 832.635 315.316 832.558 314.798C832.312 310.611 834.554 306.694 837.055 303.327C839.557 299.96 842.446 296.755 843.857 292.805C846.281 286.013 843.875 278.549 841.478 271.747C840.509 268.998 839.49 266.163 837.499 264.034C834.379 260.694 829.518 259.732 824.975 259.234C810.284 257.623 793.045 253.772 781.371 262.835Z" fill="#2F2E41"/>
<g opacity="0.1">
<path opacity="0.1" d="M779.842 264.866C780.336 264.766 780.794 264.534 781.168 264.197C781.543 263.859 781.82 263.427 781.97 262.945C782.008 262.757 782.02 262.564 782.004 262.372C781.793 262.526 781.579 262.674 781.372 262.835C780.696 263.37 780.17 264.07 779.842 264.866Z" fill="black"/>
</g>
<path d="M804.585 156.385C804.761 159.74 803.748 163.331 801.168 165.484C800.341 166.175 799.38 166.698 798.584 167.425C797.877 168.151 797.336 169.024 797 169.98C796.663 170.937 796.54 171.956 796.637 172.965C796.734 173.975 797.05 174.951 797.563 175.826C798.075 176.701 798.772 177.454 799.606 178.032C802.284 179.666 805.689 179.226 808.781 178.689C812.903 178.113 816.945 177.058 820.823 175.547C824.724 174.015 828.044 171.295 830.315 167.773C826.949 165.896 825.116 161.954 824.912 158.106C824.707 154.252 825.764 149.879 823.323 146.89C820.973 144.011 816.55 144.032 812.968 145.02C811.17 145.516 809.429 146.202 807.628 146.688C806.716 146.933 803.702 146.94 803.106 147.612C802.022 148.834 804.484 154.444 804.585 156.385Z" fill="#FBBEBE"/>
<path opacity="0.1" d="M804.585 156.385C804.761 159.74 803.748 163.331 801.168 165.484C800.341 166.175 799.38 166.698 798.584 167.425C797.877 168.151 797.336 169.024 797 169.98C796.663 170.937 796.54 171.956 796.637 172.965C796.734 173.975 797.05 174.951 797.563 175.826C798.075 176.701 798.772 177.454 799.606 178.032C802.284 179.666 805.689 179.226 808.781 178.689C812.903 178.113 816.945 177.058 820.823 175.547C824.724 174.015 828.044 171.295 830.315 167.773C826.949 165.896 825.116 161.954 824.912 158.106C824.707 154.252 825.764 149.879 823.323 146.89C820.973 144.011 816.55 144.032 812.968 145.02C811.17 145.516 809.429 146.202 807.628 146.688C806.716 146.933 803.702 146.94 803.106 147.612C802.022 148.834 804.484 154.444 804.585 156.385Z" fill="black"/>
<path d="M814.912 156.179C825.924 156.179 834.851 147.252 834.851 136.24C834.851 125.228 825.924 116.301 814.912 116.301C803.9 116.301 794.973 125.228 794.973 136.24C794.973 147.252 803.9 156.179 814.912 156.179Z" fill="#FBBEBE"/>
<path d="M751.951 289.213C751.593 290.788 750.957 292.287 750.074 293.64C747.749 297.77 746.909 302.572 747.694 307.247C748.115 309.565 749.099 311.744 750.561 313.591C752.023 315.439 753.916 316.898 756.075 317.841C757.942 318.576 760.254 318.77 761.793 317.483C759.129 314.018 758.988 309.287 759.147 304.92C759.101 304.104 759.296 303.293 759.707 302.587C759.816 302.419 759.959 302.276 760.126 302.165C760.293 302.054 760.481 301.979 760.678 301.944C760.876 301.909 761.078 301.915 761.273 301.961C761.468 302.008 761.652 302.093 761.812 302.213C761.744 304.964 762.276 307.696 763.37 310.22C763.791 311.191 764.512 312.263 765.57 312.235C767.088 312.196 767.498 310.14 767.441 308.622C767.206 302.438 766.903 295.997 763.922 290.574C762.831 288.589 761.376 286.725 760.962 284.498C760.942 283.726 760.675 282.98 760.199 282.372C759.871 282.113 759.487 281.935 759.078 281.849C757.361 281.364 753.298 279.854 751.882 281.462C750.363 283.186 752.226 287.152 751.951 289.213Z" fill="#FBBEBE"/>
<path d="M781.563 183.275C779.276 183.018 777.471 185.11 776.218 187.041C771.551 194.238 768.191 202.203 766.294 210.568C765.328 214.838 764.722 219.273 762.695 223.153C762.207 223.959 761.813 224.818 761.523 225.714C761.35 227.082 761.289 228.462 761.34 229.84C761.129 232.332 759.657 234.545 759.163 236.996C758.868 238.457 758.928 239.969 758.666 241.436C758.207 244.005 756.795 246.29 755.892 248.739C754.302 253.051 754.316 257.784 753.146 262.228C753.003 262.96 752.686 263.648 752.222 264.232C751.429 265.104 750.16 265.317 749.123 265.875C748.306 266.375 747.606 267.043 747.069 267.836C746.532 268.629 746.171 269.527 746.01 270.471C745.7 272.358 745.664 274.28 745.904 276.178L746.82 287.972C747.765 287.576 748.382 286.507 749.169 285.852C750.611 284.653 752.728 284.922 754.573 285.256L757.26 285.743C760.009 286.242 762.998 286.877 764.761 289.043C766.162 286.852 765.361 283.623 767.515 282.165C768.215 281.691 769.083 281.53 769.821 281.118C770.517 280.668 771.093 280.057 771.502 279.336C771.91 278.616 772.139 277.808 772.168 276.98C772.21 275.326 771.982 273.676 771.493 272.095C774.945 270.637 777.086 267.142 778.436 263.647C779.922 259.417 780.997 255.053 781.647 250.617C784.765 233.09 787.615 215.437 787.898 197.637C788.095 194.66 787.766 191.671 786.927 188.807C785.945 185.997 784.521 183.608 781.563 183.275Z" fill="#D0CDE1"/>
<path d="M831.83 164.187C828.539 167.639 824.332 170.082 819.703 171.23C815.098 172.363 810.396 173.055 805.661 173.299C804.204 173.543 802.71 173.413 801.317 172.924C799.979 172.317 798.961 170.732 799.506 169.366C799.77 168.944 799.948 168.474 800.03 167.983C800.007 166.769 798.22 166.668 797.059 167.027C789.384 169.401 782.023 174.102 778.48 181.313C776.479 185.387 775.819 189.967 775.185 194.461C773.516 206.281 771.852 218.357 774.088 230.083C775.281 236.335 777.575 242.43 777.718 248.793C777.799 252.359 777.197 255.911 777.225 259.478C777.119 260.727 777.453 261.974 778.17 263.003C778.722 263.644 779.555 264.049 779.94 264.802C780.584 266.063 779.724 267.793 780.571 268.926C781.615 270.322 783.796 269.32 785.234 268.335C792.469 263.422 801.208 261.222 809.907 262.124C820.357 263.246 830.741 268.815 840.875 266.032C840.354 265.271 839.903 264.463 839.53 263.619C834.477 247.013 834.819 228.451 842.382 212.827C844.966 207.489 848.395 202.402 849.385 196.555C849.784 193.82 849.815 191.044 849.478 188.301C848.946 182.993 847.682 177.641 844.797 173.154C841.912 168.666 837.139 164.712 831.83 164.187Z" fill="#D0CDE1"/>
<path d="M783.592 294.344C782.78 296.513 782.391 298.816 782.444 301.131C782.369 303.345 782.479 305.562 782.774 307.757C782.943 309.634 783.612 311.431 784.711 312.962C785.273 313.716 786.046 314.285 786.932 314.6C787.818 314.915 788.777 314.961 789.689 314.732C790.406 314.434 791.048 313.979 791.567 313.402C792.087 312.824 792.471 312.138 792.692 311.393C793.121 309.903 793.436 308.383 793.634 306.846C794.508 302.32 796.885 298.072 796.926 293.463C796.959 292.917 796.873 292.369 796.672 291.859C795.808 289.965 791.573 287.839 789.504 288.158C786.915 288.557 784.531 292.156 783.592 294.344Z" fill="#FBBEBE"/>
<path opacity="0.1" d="M841.131 181.02C840.737 184.984 844.572 187.972 846.088 191.657C846.708 193.377 847.061 195.181 847.134 197.008C848.199 209.684 847.372 222.434 846.544 235.127C846.393 239.353 845.869 243.557 844.978 247.691C842.838 256.365 837.573 263.885 832.413 271.179C830.64 274.103 827.928 276.34 824.72 277.524L807.017 286.1C804.798 287.079 802.69 288.291 800.728 289.716C798.45 291.501 796.66 293.832 795.523 296.493C792.088 294.738 788.522 293.163 785.087 291.407C784.283 290.997 783.384 290.461 783.245 289.569C783.059 288.372 784.31 287.526 785.171 286.675C786.782 285.081 787.279 282.719 788.151 280.627C791 273.795 798.166 269.421 800.751 262.484C801.744 259.818 802.048 256.806 803.809 254.572C804.817 253.452 805.95 252.451 807.187 251.591C809.916 249.274 812.423 246.708 814.675 243.925C815.687 242.875 816.514 241.663 817.124 240.339C817.898 238.37 817.666 236.175 817.706 234.06C817.838 227.136 820.969 220.679 822.885 214.024C824.69 207.758 825.443 201.184 827.811 195.107C830.179 189.031 834.818 182.654 841.131 181.02Z" fill="black"/>
<path d="M843.432 181.02C843.037 184.984 846.872 187.972 848.388 191.657C849.008 193.377 849.361 195.181 849.435 197.008C850.5 209.684 849.673 222.434 848.845 235.127C848.694 239.353 848.17 243.557 847.279 247.691C845.138 256.365 839.873 263.885 834.714 271.179C832.941 274.103 830.229 276.34 827.021 277.524L809.317 286.1C807.099 287.079 804.991 288.291 803.029 289.716C800.751 291.501 798.961 293.832 797.823 296.493C794.389 294.738 790.822 293.163 787.388 291.407C786.584 290.997 785.685 290.461 785.546 289.569C785.36 288.372 786.611 287.526 787.472 286.675C789.082 285.081 789.579 282.719 790.451 280.627C793.301 273.795 800.466 269.421 803.051 262.484C804.045 259.818 804.348 256.806 806.11 254.572C807.117 253.452 808.251 252.451 809.487 251.591C812.217 249.274 814.724 246.708 816.976 243.925C817.987 242.875 818.815 241.663 819.425 240.339C820.198 238.37 819.967 236.175 820.007 234.06C820.139 227.136 823.269 220.679 825.186 214.024C826.991 207.758 827.744 201.184 830.112 195.107C832.479 189.031 837.118 182.654 843.432 181.02Z" fill="#D0CDE1"/>
<path d="M824.8 105.416C818.656 104.666 812.436 105.953 807.096 109.082C807.883 109.111 808.673 109.165 809.469 109.261C815.369 109.973 820.897 112.521 825.272 116.543C829.647 120.566 832.648 125.861 833.852 131.681C835.056 137.501 834.402 143.552 831.982 148.98C829.562 154.408 825.499 158.94 820.366 161.935C827.68 162.201 834.814 159.631 840.278 154.761C845.741 149.891 849.111 143.098 849.684 135.802C850.256 128.505 847.987 121.27 843.349 115.607C838.712 109.945 832.066 106.293 824.8 105.416V105.416Z" fill="#2F2E41"/>
<path d="M833.528 121.19C834.217 122.75 834.592 124.431 834.63 126.137C834.669 127.842 834.37 129.538 833.752 131.128C833.618 130.717 833.463 130.313 833.287 129.918C829.78 122.114 818.976 118.884 809.156 122.703C803.371 124.953 799.22 129.148 797.501 133.811C795 126.267 800.079 117.599 809.397 113.975C819.217 110.156 830.021 113.386 833.528 121.19Z" fill="#2F2E41"/>
<g opacity="0.1">
<path opacity="0.1" d="M833.583 130.509C833.129 125.032 831.097 119.804 827.731 115.459C824.365 111.114 819.812 107.839 814.622 106.031C811.98 106.681 809.445 107.709 807.096 109.082C807.883 109.111 808.673 109.165 809.469 109.261C815.165 109.95 820.519 112.349 824.824 116.142C829.129 119.936 832.183 124.945 833.583 130.509V130.509Z" fill="black"/>
<path opacity="0.1" d="M838.184 109.803C837.731 104.326 835.698 99.0985 832.332 94.7536C828.967 90.4088 824.413 87.1336 819.223 85.3251C816.581 85.9757 814.046 87.0032 811.697 88.3761C812.484 88.4055 813.275 88.4592 814.07 88.5554C819.767 89.2442 825.12 91.6435 829.425 95.4368C833.73 99.2301 836.784 104.239 838.184 109.803V109.803Z" fill="black"/>
<path opacity="0.1" d="M838.301 78.8772C838.028 75.5716 836.801 72.4166 834.77 69.7944C832.739 67.1722 829.99 65.1956 826.858 64.1042C825.264 64.4968 823.734 65.1169 822.316 65.9454C822.791 65.9632 823.268 65.9956 823.748 66.0536C827.186 66.4693 830.417 67.9173 833.015 70.2066C835.613 72.496 837.456 75.519 838.301 78.8772V78.8772Z" fill="black"/>
<path opacity="0.1" d="M848.914 126.665C849.465 133.469 847.547 140.244 843.51 145.75C839.474 151.255 833.589 155.122 826.933 156.642C825.018 158.721 822.805 160.505 820.366 161.935C824.765 162.095 829.141 161.23 833.148 159.407C837.155 157.585 840.683 154.854 843.453 151.433C846.222 148.011 848.157 143.992 849.105 139.693C850.053 135.394 849.987 130.934 848.914 126.665V126.665Z" fill="black"/>
</g>
<path d="M760.656 308.469L756.987 197.541" stroke="#8CAF1C" stroke-width="2" stroke-miterlimit="10"/>
<path d="M756.987 213.236C765.655 213.236 772.682 206.209 772.682 197.541C772.682 188.873 765.655 181.846 756.987 181.846C748.318 181.846 741.291 188.873 741.291 197.541C741.291 206.209 748.318 213.236 756.987 213.236Z" fill="#8CAF1C"/>
<path d="M759.248 265.908C759.248 265.908 755.413 217.784 709.658 224.906Z" fill="#8CAF1C"/>
</g>
<defs>
<linearGradient id="paint0_linear" x1="828.66" y1="154.269" x2="828.66" y2="142.11" gradientUnits="userSpaceOnUse">
<stop stop-color="#808080" stop-opacity="0.25"/>
<stop offset="0.53514" stop-color="#808080" stop-opacity="0.12"/>
<stop offset="1" stop-color="#808080" stop-opacity="0.1"/>
</linearGradient>
<clipPath id="clip0">
<rect width="930.259" height="652" fill="white"/>
</clipPath>
</defs>
</svg>
